<svg width="96" height="17" viewBox="0 0 96 17" fill="none" xmlns="http://www.w3.org/2000/svg">
<path d="M8.734 0.115999C9.702 0.115999 10.494 0.262666 11.11 0.556C11.7407 0.834666 12.298 1.16467 12.782 1.546C13.0753 1.766 13.2953 1.79533 13.442 1.634C13.6033 1.458 13.7133 1.05467 13.772 0.424H14.278C14.2487 0.996 14.2267 1.69267 14.212 2.514C14.1973 3.32067 14.19 4.39867 14.19 5.748H13.684C13.6107 5.07333 13.5153 4.50133 13.398 4.032C13.2807 3.548 13.1193 3.12267 12.914 2.756C12.7087 2.38933 12.4153 2.05933 12.034 1.766C11.6673 1.39933 11.242 1.128 10.758 0.952C10.274 0.775999 9.768 0.687999 9.24 0.687999C8.448 0.687999 7.77333 0.900666 7.216 1.326C6.65867 1.73667 6.204 2.30133 5.852 3.02C5.51467 3.73867 5.26533 4.55267 5.104 5.462C4.94267 6.35667 4.862 7.288 4.862 8.256C4.862 9.23867 4.94267 10.1847 5.104 11.094C5.28 11.9887 5.544 12.788 5.896 13.492C6.26267 14.196 6.732 14.7533 7.304 15.164C7.876 15.5747 8.55067 15.78 9.328 15.78C9.812 15.78 10.296 15.692 10.78 15.516C11.2787 15.3253 11.704 15.054 12.056 14.702C12.628 14.262 13.0167 13.7193 13.222 13.074C13.4273 12.414 13.5813 11.5413 13.684 10.456H14.19C14.19 11.8493 14.1973 12.9787 14.212 13.844C14.2267 14.6947 14.2487 15.4133 14.278 16H13.772C13.7133 15.3693 13.6107 14.9733 13.464 14.812C13.332 14.6507 13.1047 14.6727 12.782 14.878C12.2393 15.2593 11.66 15.5967 11.044 15.89C10.4427 16.1687 9.66533 16.308 8.712 16.308C7.15733 16.308 5.79333 15.9927 4.62 15.362C3.46133 14.7313 2.55933 13.822 1.914 12.634C1.26867 11.446 0.946 10.016 0.946 8.344C0.946 6.70133 1.276 5.264 1.936 4.032C2.61067 2.8 3.52733 1.83933 4.686 1.15C5.85933 0.460666 7.20867 0.115999 8.734 0.115999ZM18.4817 12.92C19.0537 12.92 19.5084 13.074 19.8457 13.382C20.1831 13.6753 20.3517 14.086 20.3517 14.614C20.3517 15.142 20.1831 15.56 19.8457 15.868C19.5084 16.1613 19.0537 16.308 18.4817 16.308C17.9097 16.308 17.4551 16.1613 17.1177 15.868C16.7804 15.56 16.6117 15.142 16.6117 14.614C16.6117 14.086 16.7804 13.6753 17.1177 13.382C17.4551 13.074 17.9097 12.92 18.4817 12.92ZM31.5174 16V15.56C31.9867 15.5307 32.3387 15.472 32.5734 15.384C32.8081 15.296 32.9621 15.12 33.0354 14.856C33.1234 14.592 33.1674 14.196 33.1674 13.668V2.756C33.1674 2.21333 33.1234 1.81733 33.0354 1.568C32.9621 1.304 32.8007 1.128 32.5514 1.04C32.3167 0.937333 31.9721 0.878666 31.5174 0.863999V0.424C31.9134 0.438666 32.4267 0.453333 33.0574 0.467999C33.7027 0.482666 34.3407 0.489999 34.9714 0.489999C35.6461 0.489999 36.2767 0.482666 36.8634 0.467999C37.4647 0.453333 37.9487 0.438666 38.3154 0.424V0.863999C37.8461 0.878666 37.4867 0.937333 37.2374 1.04C37.0027 1.128 36.8487 1.304 36.7754 1.568C36.7021 1.81733 36.6654 2.21333 36.6654 2.756V13.668C36.6654 14.196 36.7021 14.592 36.7754 14.856C36.8634 15.12 37.0247 15.296 37.2594 15.384C37.4941 15.472 37.8461 15.5307 38.3154 15.56V16C37.9487 15.9707 37.4647 15.956 36.8634 15.956C36.2767 15.9413 35.6461 15.934 34.9714 15.934C34.3407 15.934 33.7027 15.9413 33.0574 15.956C32.4267 15.956 31.9134 15.9707 31.5174 16ZM22.1894 16V15.56C22.6587 15.5307 23.0107 15.472 23.2454 15.384C23.4801 15.296 23.6341 15.12 23.7074 14.856C23.7954 14.592 23.8394 14.196 23.8394 13.668V2.756C23.8394 2.21333 23.7954 1.81733 23.7074 1.568C23.6341 1.304 23.4727 1.128 23.2234 1.04C22.9887 0.937333 22.6441 0.878666 22.1894 0.863999V0.424C22.5707 0.438666 23.0621 0.453333 23.6634 0.467999C24.2794 0.482666 24.9467 0.489999 25.6654 0.489999C26.2814 0.489999 26.8901 0.482666 27.4914 0.467999C28.0927 0.453333 28.5914 0.438666 28.9874 0.424V0.863999C28.5181 0.878666 28.1587 0.937333 27.9094 1.04C27.6747 1.128 27.5207 1.304 27.4474 1.568C27.3741 1.81733 27.3374 2.21333 27.3374 2.756V13.668C27.3374 14.196 27.3741 14.592 27.4474 14.856C27.5354 15.12 27.6967 15.296 27.9314 15.384C28.1661 15.472 28.5181 15.5307 28.9874 15.56V16C28.5914 15.9707 28.0927 15.956 27.4914 15.956C26.8901 15.9413 26.2814 15.934 25.6654 15.934C24.9467 15.934 24.2794 15.9413 23.6634 15.956C23.0621 15.956 22.5707 15.9707 22.1894 16ZM25.9074 8.388V7.948H34.5974V8.388H25.9074ZM44.8329 4.318C46.1236 4.318 47.1356 4.69933 47.8689 5.462C48.6022 6.22467 48.9689 7.47133 48.9689 9.202H41.7309L41.6869 8.784H46.1969C46.2116 8.06533 46.1676 7.40533 46.0649 6.804C45.9622 6.188 45.8009 5.69667 45.5809 5.33C45.3609 4.96333 45.0676 4.78 44.7009 4.78C44.1876 4.78 43.7476 5.10267 43.3809 5.748C43.0289 6.39333 42.8162 7.464 42.7429 8.96L42.8089 9.092C42.7942 9.268 42.7796 9.45133 42.7649 9.642C42.7649 9.83267 42.7649 10.0307 42.7649 10.236C42.7649 11.248 42.9042 12.0693 43.1829 12.7C43.4762 13.3307 43.8429 13.7927 44.2829 14.086C44.7229 14.3647 45.1702 14.504 45.6249 14.504C45.9329 14.504 46.2482 14.46 46.5709 14.372C46.9082 14.2693 47.2456 14.0933 47.5829 13.844C47.9202 13.58 48.2356 13.2133 48.5289 12.744L48.9249 12.876C48.7489 13.4333 48.4702 13.976 48.0889 14.504C47.7076 15.032 47.2236 15.4647 46.6369 15.802C46.0502 16.1393 45.3462 16.308 44.5249 16.308C43.5276 16.308 42.6476 16.0953 41.8849 15.67C41.1222 15.2447 40.5209 14.5993 40.0809 13.734C39.6556 12.8687 39.4429 11.7687 39.4429 10.434C39.4429 9.07 39.6702 7.93333 40.1249 7.024C40.5942 6.11467 41.2322 5.44 42.0389 5C42.8602 4.54533 43.7916 4.318 44.8329 4.318ZM53.2788 16.154C52.6188 16.154 52.0688 16.0293 51.6288 15.78C51.1888 15.5307 50.8662 15.2007 50.6608 14.79C50.4555 14.3647 50.3528 13.9027 50.3528 13.404C50.3528 12.7733 50.4922 12.26 50.7708 11.864C51.0642 11.468 51.4382 11.1453 51.8928 10.896C52.3475 10.6467 52.8242 10.4413 53.3228 10.28C53.8362 10.1187 54.3202 9.96467 54.7748 9.818C55.2442 9.65667 55.6182 9.47333 55.8968 9.268C56.1902 9.048 56.3368 8.76933 56.3368 8.432V6.716C56.3368 6.33467 56.2708 5.99733 56.1388 5.704C56.0215 5.396 55.8308 5.16133 55.5668 5C55.3175 4.83867 54.9875 4.758 54.5768 4.758C54.2835 4.758 53.9902 4.802 53.6968 4.89C53.4035 4.96333 53.1615 5.09533 52.9708 5.286C53.3815 5.43267 53.6968 5.66 53.9168 5.968C54.1515 6.26133 54.2688 6.59867 54.2688 6.98C54.2688 7.47867 54.0928 7.87467 53.7408 8.168C53.4035 8.46133 53.0002 8.608 52.5308 8.608C52.0028 8.608 51.5995 8.44667 51.3208 8.124C51.0568 7.78667 50.9248 7.38333 50.9248 6.914C50.9248 6.48867 51.0275 6.13667 51.2328 5.858C51.4528 5.57933 51.7535 5.31533 52.1348 5.066C52.5455 4.83133 53.0368 4.648 53.6088 4.516C54.1955 4.384 54.8262 4.318 55.5008 4.318C56.1755 4.318 56.7842 4.39133 57.3268 4.538C57.8695 4.67 58.3242 4.91933 58.6908 5.286C59.0282 5.62333 59.2482 6.04133 59.3508 6.54C59.4535 7.024 59.5048 7.64 59.5048 8.388V14.372C59.5048 14.7387 59.5415 14.9953 59.6148 15.142C59.6882 15.274 59.8128 15.34 59.9888 15.34C60.1208 15.34 60.2455 15.3033 60.3628 15.23C60.4948 15.1567 60.6342 15.0687 60.7808 14.966L61.0008 15.34C60.6928 15.604 60.3335 15.8093 59.9228 15.956C59.5268 16.088 59.0795 16.154 58.5808 16.154C58.0382 16.154 57.6055 16.0807 57.2828 15.934C56.9602 15.7727 56.7255 15.56 56.5788 15.296C56.4468 15.032 56.3808 14.724 56.3808 14.372C56.0288 14.9293 55.6035 15.3693 55.1048 15.692C54.6062 16 53.9975 16.154 53.2788 16.154ZM54.8408 14.746C55.1342 14.746 55.3982 14.68 55.6328 14.548C55.8822 14.4013 56.1168 14.1667 56.3368 13.844V9.334C56.2048 9.554 56.0215 9.752 55.7868 9.928C55.5522 10.104 55.3028 10.2873 55.0388 10.478C54.7748 10.654 54.5182 10.852 54.2688 11.072C54.0342 11.292 53.8435 11.5633 53.6968 11.886C53.5502 12.2087 53.4768 12.5973 53.4768 13.052C53.4768 13.624 53.6015 14.0493 53.8508 14.328C54.1002 14.6067 54.4302 14.746 54.8408 14.746ZM72.0407 4.626V5.066C71.7621 5.13933 71.4981 5.31533 71.2487 5.594C70.9994 5.858 70.7574 6.31267 70.5227 6.958L67.3107 16.044C67.0761 16.0293 66.8341 16.022 66.5847 16.022C66.3501 16.022 66.1154 16.0293 65.8807 16.044L61.9647 6.32C61.7301 5.748 61.4954 5.40333 61.2607 5.286C61.0407 5.154 60.8501 5.088 60.6887 5.088V4.626C61.1581 4.65533 61.6421 4.68467 62.1407 4.714C62.6541 4.72867 63.2114 4.736 63.8127 4.736C64.2674 4.736 64.7441 4.72867 65.2427 4.714C65.7561 4.68467 66.2327 4.65533 66.6727 4.626V5.088C66.3647 5.088 66.0861 5.10267 65.8367 5.132C65.6021 5.16133 65.4407 5.25667 65.3527 5.418C65.2647 5.57933 65.2794 5.86533 65.3967 6.276L67.9707 13.096L67.7507 13.404L69.4887 8.586C69.7674 7.794 69.8847 7.14867 69.8407 6.65C69.7967 6.13667 69.6354 5.75533 69.3567 5.506C69.0781 5.242 68.7041 5.09533 68.2347 5.066V4.626C68.4547 4.64067 68.6894 4.65533 68.9387 4.67C69.2027 4.67 69.4521 4.67733 69.6867 4.692C69.9361 4.692 70.1561 4.692 70.3467 4.692C70.6401 4.692 70.9481 4.68467 71.2707 4.67C71.5934 4.65533 71.8501 4.64067 72.0407 4.626ZM77.9403 4.318C79.231 4.318 80.243 4.69933 80.9763 5.462C81.7097 6.22467 82.0763 7.47133 82.0763 9.202H74.8383L74.7943 8.784H79.3043C79.319 8.06533 79.275 7.40533 79.1723 6.804C79.0697 6.188 78.9083 5.69667 78.6883 5.33C78.4683 4.96333 78.175 4.78 77.8083 4.78C77.295 4.78 76.855 5.10267 76.4883 5.748C76.1363 6.39333 75.9237 7.464 75.8503 8.96L75.9163 9.092C75.9017 9.268 75.887 9.45133 75.8723 9.642C75.8723 9.83267 75.8723 10.0307 75.8723 10.236C75.8723 11.248 76.0117 12.0693 76.2903 12.7C76.5837 13.3307 76.9503 13.7927 77.3903 14.086C77.8303 14.3647 78.2777 14.504 78.7323 14.504C79.0403 14.504 79.3557 14.46 79.6783 14.372C80.0157 14.2693 80.353 14.0933 80.6903 13.844C81.0277 13.58 81.343 13.2133 81.6363 12.744L82.0323 12.876C81.8563 13.4333 81.5777 13.976 81.1963 14.504C80.815 15.032 80.331 15.4647 79.7443 15.802C79.1577 16.1393 78.4537 16.308 77.6323 16.308C76.635 16.308 75.755 16.0953 74.9923 15.67C74.2297 15.2447 73.6283 14.5993 73.1883 13.734C72.763 12.8687 72.5503 11.7687 72.5503 10.434C72.5503 9.07 72.7777 7.93333 73.2323 7.024C73.7017 6.11467 74.3397 5.44 75.1463 5C75.9677 4.54533 76.899 4.318 77.9403 4.318ZM91.4054 4.318C92.0214 4.318 92.52 4.39867 92.9014 4.56C93.2974 4.70667 93.6054 4.912 93.8254 5.176C94.06 5.45467 94.2287 5.814 94.3314 6.254C94.4487 6.694 94.5074 7.288 94.5074 8.036V13.954C94.5074 14.57 94.61 14.988 94.8154 15.208C95.0354 15.428 95.402 15.538 95.9154 15.538V16C95.6367 15.9853 95.2187 15.9707 94.6614 15.956C94.104 15.9267 93.554 15.912 93.0114 15.912C92.454 15.912 91.904 15.9267 91.3614 15.956C90.8334 15.9707 90.43 15.9853 90.1514 16V15.538C90.5914 15.538 90.8994 15.428 91.0754 15.208C91.2514 14.988 91.3394 14.57 91.3394 13.954V7.112C91.3394 6.74533 91.3027 6.43 91.2294 6.166C91.156 5.88733 91.024 5.67467 90.8334 5.528C90.6427 5.36667 90.3567 5.286 89.9754 5.286C89.5794 5.286 89.2127 5.396 88.8754 5.616C88.5527 5.836 88.2887 6.144 88.0834 6.54C87.8927 6.92133 87.7974 7.354 87.7974 7.838V13.954C87.7974 14.57 87.8854 14.988 88.0614 15.208C88.252 15.428 88.56 15.538 88.9854 15.538V16C88.7214 15.9853 88.3327 15.9707 87.8194 15.956C87.3207 15.9267 86.8 15.912 86.2574 15.912C85.7 15.912 85.128 15.9267 84.5414 15.956C83.9547 15.9707 83.5147 15.9853 83.2214 16V15.538C83.7347 15.538 84.094 15.428 84.2994 15.208C84.5194 14.988 84.6294 14.57 84.6294 13.954V7.024C84.6294 6.364 84.5267 5.88 84.3214 5.572C84.1307 5.24933 83.764 5.088 83.2214 5.088V4.626C83.6907 4.67 84.1454 4.692 84.5854 4.692C85.2014 4.692 85.7734 4.67 86.3014 4.626C86.844 4.56733 87.3427 4.48667 87.7974 4.384V6.364C88.164 5.616 88.6627 5.088 89.2934 4.78C89.924 4.472 90.628 4.318 91.4054 4.318Z" fill="#2E2E2E"/>
</svg>
